<mxfile host="app.diagrams.net" modified="2023-04-27T07:38:51.871Z" agent="Mozilla/5.0 (Macintosh; Intel Mac OS X 10_15_7) AppleWebKit/537.36 (KHTML, like Gecko) Chrome/112.0.0.0 Safari/537.36" etag="x6FISLgZ6GM7Z7GFTE3G" version="21.2.3" type="github">
  <diagram name="Page-1" id="8H7WTxQhCy7VGI0r-rRk">
    <mxGraphModel dx="1434" dy="739" grid="1" gridSize="10" guides="1" tooltips="1" connect="1" arrows="1" fold="1" page="1" pageScale="1" pageWidth="850" pageHeight="1100" math="0" shadow="0">
      <root>
        <mxCell id="0" />
        <mxCell id="1" parent="0" />
        <mxCell id="6t17quoVu_bERYXDJHFk-1" value="Hesabı Sil" style="rounded=1;whiteSpace=wrap;html=1;" vertex="1" parent="1">
          <mxGeometry x="330" y="50" width="120" height="60" as="geometry" />
        </mxCell>
        <mxCell id="6t17quoVu_bERYXDJHFk-4" value="" style="endArrow=classic;html=1;rounded=0;exitX=0.5;exitY=1;exitDx=0;exitDy=0;" edge="1" parent="1" source="6t17quoVu_bERYXDJHFk-1">
          <mxGeometry width="50" height="50" relative="1" as="geometry">
            <mxPoint x="400" y="430" as="sourcePoint" />
            <mxPoint x="390" y="200" as="targetPoint" />
          </mxGeometry>
        </mxCell>
        <mxCell id="6t17quoVu_bERYXDJHFk-5" value="Bilgilendirme Mesajları (Popup)" style="text;html=1;strokeColor=none;fillColor=none;align=center;verticalAlign=middle;whiteSpace=wrap;rounded=0;" vertex="1" parent="1">
          <mxGeometry x="330" y="212.5" width="120" height="30" as="geometry" />
        </mxCell>
        <mxCell id="6t17quoVu_bERYXDJHFk-6" value="İptal Sebepleri" style="rounded=0;whiteSpace=wrap;html=1;" vertex="1" parent="1">
          <mxGeometry x="90" y="210" width="120" height="35" as="geometry" />
        </mxCell>
        <mxCell id="6t17quoVu_bERYXDJHFk-8" value="DB" style="shape=cylinder3;whiteSpace=wrap;html=1;boundedLbl=1;backgroundOutline=1;size=15;" vertex="1" parent="1">
          <mxGeometry x="120" y="100" width="60" height="80" as="geometry" />
        </mxCell>
        <mxCell id="6t17quoVu_bERYXDJHFk-11" value="Admin" style="rounded=0;whiteSpace=wrap;html=1;" vertex="1" parent="1">
          <mxGeometry x="90" y="32" width="120" height="30" as="geometry" />
        </mxCell>
        <mxCell id="6t17quoVu_bERYXDJHFk-12" value="" style="endArrow=classic;startArrow=classic;html=1;rounded=0;entryX=0.5;entryY=1;entryDx=0;entryDy=0;exitX=0.5;exitY=0;exitDx=0;exitDy=0;exitPerimeter=0;" edge="1" parent="1" source="6t17quoVu_bERYXDJHFk-8" target="6t17quoVu_bERYXDJHFk-11">
          <mxGeometry width="50" height="50" relative="1" as="geometry">
            <mxPoint x="400" y="430" as="sourcePoint" />
            <mxPoint x="450" y="380" as="targetPoint" />
          </mxGeometry>
        </mxCell>
        <mxCell id="6t17quoVu_bERYXDJHFk-14" value="" style="endArrow=classic;html=1;rounded=0;entryX=0.5;entryY=0;entryDx=0;entryDy=0;" edge="1" parent="1" target="6t17quoVu_bERYXDJHFk-6">
          <mxGeometry width="50" height="50" relative="1" as="geometry">
            <mxPoint x="150" y="180" as="sourcePoint" />
            <mxPoint x="200" y="130" as="targetPoint" />
          </mxGeometry>
        </mxCell>
        <mxCell id="6t17quoVu_bERYXDJHFk-15" value="" style="endArrow=classic;html=1;rounded=0;exitX=1;exitY=0.5;exitDx=0;exitDy=0;entryX=0;entryY=0.5;entryDx=0;entryDy=0;" edge="1" parent="1" source="6t17quoVu_bERYXDJHFk-6" target="6t17quoVu_bERYXDJHFk-5">
          <mxGeometry width="50" height="50" relative="1" as="geometry">
            <mxPoint x="400" y="430" as="sourcePoint" />
            <mxPoint x="450" y="380" as="targetPoint" />
          </mxGeometry>
        </mxCell>
        <mxCell id="6t17quoVu_bERYXDJHFk-16" value="" style="endArrow=classic;html=1;rounded=0;exitX=0.5;exitY=1;exitDx=0;exitDy=0;entryX=0.5;entryY=0;entryDx=0;entryDy=0;" edge="1" parent="1" source="6t17quoVu_bERYXDJHFk-5" target="6t17quoVu_bERYXDJHFk-17">
          <mxGeometry width="50" height="50" relative="1" as="geometry">
            <mxPoint x="400" y="430" as="sourcePoint" />
            <mxPoint x="390" y="300" as="targetPoint" />
            <Array as="points" />
          </mxGeometry>
        </mxCell>
        <mxCell id="6t17quoVu_bERYXDJHFk-17" value="&lt;font color=&quot;#ffbb00&quot;&gt;Kullanıcı Status: Passive&lt;/font&gt;" style="text;html=1;strokeColor=#d79b00;fillColor=#ffe6cc;align=center;verticalAlign=middle;whiteSpace=wrap;rounded=0;" vertex="1" parent="1">
          <mxGeometry x="342.5" y="310" width="95" height="40" as="geometry" />
        </mxCell>
        <mxCell id="6t17quoVu_bERYXDJHFk-19" value="" style="endArrow=classic;html=1;rounded=0;entryX=0.5;entryY=0;entryDx=0;entryDy=0;" edge="1" parent="1" target="6t17quoVu_bERYXDJHFk-20">
          <mxGeometry width="50" height="50" relative="1" as="geometry">
            <mxPoint x="390" y="350" as="sourcePoint" />
            <mxPoint x="390" y="400" as="targetPoint" />
          </mxGeometry>
        </mxCell>
        <mxCell id="6t17quoVu_bERYXDJHFk-23" style="edgeStyle=orthogonalEdgeStyle;rounded=0;orthogonalLoop=1;jettySize=auto;html=1;exitX=0.75;exitY=1;exitDx=0;exitDy=0;" edge="1" parent="1" source="6t17quoVu_bERYXDJHFk-20">
          <mxGeometry relative="1" as="geometry">
            <mxPoint x="640" y="520" as="targetPoint" />
          </mxGeometry>
        </mxCell>
        <mxCell id="6t17quoVu_bERYXDJHFk-24" style="edgeStyle=orthogonalEdgeStyle;rounded=0;orthogonalLoop=1;jettySize=auto;html=1;exitX=0.25;exitY=1;exitDx=0;exitDy=0;" edge="1" parent="1" source="6t17quoVu_bERYXDJHFk-20">
          <mxGeometry relative="1" as="geometry">
            <mxPoint x="160" y="520" as="targetPoint" />
          </mxGeometry>
        </mxCell>
        <mxCell id="6t17quoVu_bERYXDJHFk-20" value="Mail (Müşteri Deneyimi)" style="rounded=0;whiteSpace=wrap;html=1;" vertex="1" parent="1">
          <mxGeometry x="250" y="410" width="280" height="38" as="geometry" />
        </mxCell>
        <mxCell id="6t17quoVu_bERYXDJHFk-29" style="edgeStyle=orthogonalEdgeStyle;rounded=0;orthogonalLoop=1;jettySize=auto;html=1;exitX=0.5;exitY=1;exitDx=0;exitDy=0;" edge="1" parent="1" source="6t17quoVu_bERYXDJHFk-22" target="6t17quoVu_bERYXDJHFk-30">
          <mxGeometry relative="1" as="geometry">
            <mxPoint x="160" y="610" as="targetPoint" />
          </mxGeometry>
        </mxCell>
        <mxCell id="6t17quoVu_bERYXDJHFk-22" value="Devam Et" style="text;html=1;strokeColor=none;fillColor=none;align=center;verticalAlign=middle;whiteSpace=wrap;rounded=0;" vertex="1" parent="1">
          <mxGeometry x="130" y="535" width="60" height="30" as="geometry" />
        </mxCell>
        <mxCell id="6t17quoVu_bERYXDJHFk-27" style="edgeStyle=orthogonalEdgeStyle;rounded=0;orthogonalLoop=1;jettySize=auto;html=1;exitX=1;exitY=0.5;exitDx=0;exitDy=0;entryX=1;entryY=0.5;entryDx=0;entryDy=0;" edge="1" parent="1" source="6t17quoVu_bERYXDJHFk-25" target="6t17quoVu_bERYXDJHFk-26">
          <mxGeometry relative="1" as="geometry" />
        </mxCell>
        <mxCell id="6t17quoVu_bERYXDJHFk-25" value="Vazgeç" style="text;html=1;strokeColor=none;fillColor=none;align=center;verticalAlign=middle;whiteSpace=wrap;rounded=0;" vertex="1" parent="1">
          <mxGeometry x="610" y="535" width="60" height="30" as="geometry" />
        </mxCell>
        <mxCell id="6t17quoVu_bERYXDJHFk-26" value="Kullanıcı Status: Active" style="text;html=1;strokeColor=#82b366;fillColor=#d5e8d4;align=center;verticalAlign=middle;whiteSpace=wrap;rounded=0;" vertex="1" parent="1">
          <mxGeometry x="340" y="10" width="100" height="30" as="geometry" />
        </mxCell>
        <mxCell id="6t17quoVu_bERYXDJHFk-39" style="edgeStyle=orthogonalEdgeStyle;rounded=0;orthogonalLoop=1;jettySize=auto;html=1;exitX=0.5;exitY=1;exitDx=0;exitDy=0;" edge="1" parent="1" source="6t17quoVu_bERYXDJHFk-30" target="6t17quoVu_bERYXDJHFk-38">
          <mxGeometry relative="1" as="geometry" />
        </mxCell>
        <mxCell id="6t17quoVu_bERYXDJHFk-30" value="Kullanıcı Status:&lt;br&gt;Delete" style="text;html=1;strokeColor=#b85450;fillColor=#f8cecc;align=center;verticalAlign=middle;whiteSpace=wrap;rounded=0;" vertex="1" parent="1">
          <mxGeometry x="105" y="600" width="110" height="30" as="geometry" />
        </mxCell>
        <mxCell id="6t17quoVu_bERYXDJHFk-38" value="*İşlemi onaylayan M.T bilgilerini tut.&lt;br&gt;&lt;br&gt;*Şu ana dek yaptığı bütün rezervasyonlarına hideFromUser flag&#39;ini ekle. Böylece tekrar üye olduğunda eski rezervasyonları filtrelensin, kullanıcıya görünmesin." style="rounded=0;whiteSpace=wrap;html=1;" vertex="1" parent="1">
          <mxGeometry x="21.25" y="670" width="277.5" height="100" as="geometry" />
        </mxCell>
        <mxCell id="6t17quoVu_bERYXDJHFk-44" style="edgeStyle=orthogonalEdgeStyle;rounded=0;orthogonalLoop=1;jettySize=auto;html=1;exitX=1;exitY=0.5;exitDx=0;exitDy=0;entryX=0;entryY=0.5;entryDx=0;entryDy=0;" edge="1" parent="1" source="6t17quoVu_bERYXDJHFk-40" target="6t17quoVu_bERYXDJHFk-43">
          <mxGeometry relative="1" as="geometry" />
        </mxCell>
        <mxCell id="6t17quoVu_bERYXDJHFk-40" value="Tekrar Üye Ol" style="text;html=1;strokeColor=none;fillColor=none;align=center;verticalAlign=middle;whiteSpace=wrap;rounded=0;" vertex="1" parent="1">
          <mxGeometry x="380" y="705" width="60" height="30" as="geometry" />
        </mxCell>
        <mxCell id="6t17quoVu_bERYXDJHFk-41" value="" style="endArrow=classic;html=1;rounded=0;exitX=1;exitY=0.5;exitDx=0;exitDy=0;entryX=0;entryY=0.5;entryDx=0;entryDy=0;" edge="1" parent="1" source="6t17quoVu_bERYXDJHFk-38" target="6t17quoVu_bERYXDJHFk-40">
          <mxGeometry width="50" height="50" relative="1" as="geometry">
            <mxPoint x="400" y="420" as="sourcePoint" />
            <mxPoint x="450" y="370" as="targetPoint" />
          </mxGeometry>
        </mxCell>
        <mxCell id="6t17quoVu_bERYXDJHFk-45" style="edgeStyle=orthogonalEdgeStyle;rounded=0;orthogonalLoop=1;jettySize=auto;html=1;exitX=1;exitY=0.5;exitDx=0;exitDy=0;entryX=1;entryY=0;entryDx=0;entryDy=0;" edge="1" parent="1" source="6t17quoVu_bERYXDJHFk-43" target="6t17quoVu_bERYXDJHFk-26">
          <mxGeometry relative="1" as="geometry">
            <Array as="points">
              <mxPoint x="750" y="720" />
              <mxPoint x="750" y="10" />
            </Array>
          </mxGeometry>
        </mxCell>
        <mxCell id="6t17quoVu_bERYXDJHFk-43" value="Status&#39;u Delete olan hesabın bilgilerini aynı dokümanda deletedAccount array&#39;ine kopyala. Böylece eski hesap bilgileri yok olmayacak. DB&#39;de görebileceğiz.&lt;br&gt;&lt;br&gt;(userID aynı kalacak)" style="text;html=1;strokeColor=none;fillColor=none;align=center;verticalAlign=middle;whiteSpace=wrap;rounded=0;glass=0;shadow=0;" vertex="1" parent="1">
          <mxGeometry x="470" y="705" width="180" height="30" as="geometry" />
        </mxCell>
        <mxCell id="6t17quoVu_bERYXDJHFk-48" value="" style="endArrow=classic;html=1;rounded=0;entryX=1;entryY=1;entryDx=0;entryDy=0;" edge="1" parent="1" target="6t17quoVu_bERYXDJHFk-26">
          <mxGeometry width="50" height="50" relative="1" as="geometry">
            <mxPoint x="440" y="330" as="sourcePoint" />
            <mxPoint x="590" y="50" as="targetPoint" />
            <Array as="points">
              <mxPoint x="620" y="330" />
              <mxPoint x="620" y="200" />
              <mxPoint x="620" y="40" />
            </Array>
          </mxGeometry>
        </mxCell>
        <mxCell id="6t17quoVu_bERYXDJHFk-49" value="Aynı Mail ile Tekrar Üye Ol" style="text;html=1;strokeColor=none;fillColor=none;align=center;verticalAlign=middle;whiteSpace=wrap;rounded=0;" vertex="1" parent="1">
          <mxGeometry x="450" y="300" width="150" height="30" as="geometry" />
        </mxCell>
      </root>
    </mxGraphModel>
  </diagram>
</mxfile>
